<svg xmlns="http://www.w3.org/2000/svg" xmlns:xlink="http://www.w3.org/1999/xlink" width="500" zoomAndPan="magnify" viewBox="0 0 375 374.999991" height="500" preserveAspectRatio="xMidYMid meet" version="1.0"><defs><g/></defs><g fill="#fc8211" fill-opacity="1"><g transform="translate(0.0232008, 223.129446)"><g><path d="M 62.949219 -105.925781 L 44.792969 -105.925781 C 44.488281 -96.542969 31.019531 -75.207031 25.574219 -66.734375 C 16.34375 -52.507812 -3.933594 -27.539062 3.328125 -9.683594 C 5.902344 -3.480469 11.347656 0 19.367188 0 C 34.351562 0 47.363281 -21.035156 58.5625 -30.71875 C 63.554688 -35.105469 69.304688 -38.4375 73.84375 -37.375 C 71.421875 -39.644531 66.582031 -45.246094 63.707031 -46.457031 C 58.863281 -48.726562 53.71875 -46 49.9375 -41.914062 C 42.824219 -34.199219 30.265625 -19.367188 21.488281 -14.980469 C 10.59375 -9.683594 4.539062 -18.160156 12.710938 -37.527344 C 21.035156 -57.199219 42.066406 -83.378906 46.152344 -103.503906 C 49.027344 -98.964844 52.207031 -91.09375 54.023438 -86.707031 L 90.1875 0 L 108.496094 0 C 107.890625 -0.90625 103.957031 -7.71875 100.929688 -14.828125 Z M 62.949219 -105.925781 "/></g></g></g><g fill="#ffffff" fill-opacity="1"><g transform="translate(122.128297, 223.129446)"><g><path d="M 16.191406 -105.925781 L 0 -105.925781 C 0 -105.925781 1.511719 -98.207031 1.511719 -89.28125 L 1.511719 -16.644531 C 1.511719 -7.71875 0 0 0 0 L 14.679688 0 C 14.679688 -8.171875 14.679688 -16.492188 14.679688 -24.664062 C 19.367188 -37.226562 34.199219 -56.746094 47.363281 -60.074219 C 59.773438 -63.402344 66.128906 -54.476562 60.527344 -47.0625 C 54.628906 -39.191406 36.015625 -35.410156 27.238281 -37.832031 L 26.328125 -36.015625 C 27.84375 -35.410156 29.203125 -34.046875 29.960938 -32.683594 L 45.851562 -4.691406 C 47.667969 -1.511719 49.179688 0 52.8125 0 L 64.765625 0 C 62.496094 -2.574219 57.652344 -10.441406 55.382812 -14.527344 L 44.792969 -33.140625 C 52.960938 -34.046875 60.679688 -37.832031 63.554688 -46.152344 C 67.1875 -56.898438 60.378906 -65.976562 49.332031 -66.128906 C 36.164062 -66.277344 21.789062 -54.777344 14.679688 -44.1875 L 14.679688 -89.28125 C 14.679688 -98.207031 16.191406 -105.925781 16.191406 -105.925781 Z M 16.191406 -105.925781 "/></g></g></g><g fill="#ffffff" fill-opacity="1"><g transform="translate(200.355091, 223.129446)"><g><path d="M 55.988281 -52.054688 L 59.773438 -59.621094 C 54.171875 -64.460938 50.996094 -65.824219 46.757812 -66.277344 C 38.285156 -66.882812 22.394531 -59.167969 14.679688 -55.230469 L 14.679688 -66.277344 L 0 -66.277344 C 0 -66.277344 1.511719 -58.5625 1.511719 -49.480469 L 1.511719 -16.644531 C 1.511719 -7.71875 0 0 0 0 L 16.191406 0 C 16.191406 0 14.679688 -7.71875 14.679688 -16.644531 L 14.679688 -52.960938 C 18.460938 -54.929688 23 -57.199219 27.84375 -59.316406 C 38.585938 -63.707031 48.875 -61.585938 55.988281 -52.054688 Z M 55.988281 -52.054688 "/></g></g></g><g fill="#ffffff" fill-opacity="1"><g transform="translate(271.319032, 223.129446)"><g><path d="M 16.191406 -66.277344 L 0 -66.277344 C 0 -66.277344 1.511719 -58.5625 1.511719 -49.480469 L 1.511719 -16.644531 C 1.511719 -7.71875 0 0 0 0 L 16.191406 0 C 16.191406 0 14.679688 -7.71875 14.679688 -16.644531 L 14.679688 -49.480469 C 14.679688 -58.5625 16.191406 -66.277344 16.191406 -66.277344 Z M 8.019531 -81.714844 C 4.386719 -81.714844 1.511719 -78.839844 1.511719 -75.207031 C 1.511719 -71.574219 4.386719 -68.546875 8.019531 -68.546875 C 11.804688 -68.546875 14.679688 -71.574219 14.679688 -75.207031 C 14.679688 -78.839844 11.804688 -81.714844 8.019531 -81.714844 Z M 8.019531 -81.714844 "/></g></g></g><g fill="#ffffff" fill-opacity="1"><g transform="translate(300.975604, 223.129446)"><g><path d="M 3.027344 -64.160156 L 3.027344 -20.730469 C 3.027344 -6.65625 8.324219 0 18.308594 0 C 22.394531 0 27.84375 -1.058594 31.324219 -5.144531 L 31.324219 -6.355469 C 27.996094 -3.78125 21.789062 -1.816406 18.765625 -6.054688 C 16.191406 -9.535156 16.34375 -16.644531 16.34375 -20.429688 L 16.34375 -64.160156 L 29.808594 -64.160156 L 29.808594 -66.277344 L 16.34375 -66.277344 L 16.34375 -87.765625 L 14.222656 -87.765625 C 13.164062 -77.324219 4.386719 -66.277344 -4.386719 -66.277344 L -4.386719 -64.160156 Z M 3.027344 -64.160156 "/></g></g></g><g fill="#ffffff" fill-opacity="1"><g transform="translate(345.309156, 223.129446)"><g><path d="M 16.191406 -66.277344 L 0 -66.277344 C 0 -66.277344 1.511719 -58.5625 1.511719 -49.480469 L 1.511719 -16.644531 C 1.511719 -7.71875 0 0 0 0 L 16.191406 0 C 16.191406 0 14.679688 -7.71875 14.679688 -16.644531 L 14.679688 -49.480469 C 14.679688 -58.5625 16.191406 -66.277344 16.191406 -66.277344 Z M 8.019531 -81.714844 C 4.386719 -81.714844 1.511719 -78.839844 1.511719 -75.207031 C 1.511719 -71.574219 4.386719 -68.546875 8.019531 -68.546875 C 11.804688 -68.546875 14.679688 -71.574219 14.679688 -75.207031 C 14.679688 -78.839844 11.804688 -81.714844 8.019531 -81.714844 Z M 8.019531 -81.714844 "/></g></g></g></svg>